<?xml version="1.0" standalone="no"?>
<!DOCTYPE svg PUBLIC "-//W3C//DTD SVG 1.1//EN" "http://www.w3.org/Graphics/SVG/1.1/DTD/svg11.dtd">
<svg t="1710486176538" class="icon" viewBox="0 0 1024 1024" version="1.1"
    xmlns="http://www.w3.org/2000/svg" p-id="51298" xmlns:xlink="http://www.w3.org/1999/xlink"
    width="128" height="128">
    <path
        d="M512 1.400958a510.348871 510.348871 0 1 1-510.348871 510.348871 510.649077 510.649077 0 0 1 510.348871-510.348871zM234.360207 454.010359L289.74807 465.318089a227.105248 227.105248 0 0 1 408.629336-83.20688L625.427538 455.311248h141.846966a28.419427 28.419427 0 0 0 28.269325-28.419427V285.194957l-56.688752 56.688753A283.643897 283.643897 0 0 0 234.360207 454.010359z m-6.004104 284.894752L285.194957 682.11629a283.643897 283.643897 0 0 0 504.49487-112.126649l-55.387863-11.507866a227.105248 227.105248 0 0 1-408.629336 83.206879l72.899834-72.899834H256.725496a28.419427 28.419427 0 0 0-28.369393 28.369394z"
        fill="currentColor" p-id="51299"></path>
</svg>